<?xml version="1.0" encoding="UTF-8"?>
<!DOCTYPE svg PUBLIC "-//W3C//DTD SVG 1.1//EN" "http://www.w3.org/Graphics/SVG/1.1/DTD/svg11.dtd">
<!-- Creator: CorelDRAW X8 -->
<svg xmlns="http://www.w3.org/2000/svg" xml:space="preserve" width="180px" height="103px" version="1.1" style="shape-rendering:geometricPrecision; text-rendering:geometricPrecision; image-rendering:optimizeQuality; fill-rule:evenodd; clip-rule:evenodd"
viewBox="0 0 184 106"
 xmlns:xlink="http://www.w3.org/1999/xlink">
 <defs>
  <style type="text/css">
   <![CDATA[
    .fil1 {fill:#FEFEFE;fill-rule:nonzero}
    .fil0 {fill:#FF120C;fill-rule:nonzero}
   ]]>
  </style>
 </defs>
 <g id="Layer_x0020_1">
  <metadata id="CorelCorpID_0Corel-Layer"/>
  <polygon class="fil0" points="0,0 184,0 184,106 0,106 "/>
  <path class="fil1" d="M130 61c0,2 1,5 3,6 2,1 4,2 6,2 0,3 0,7 0,10 -10,0 -16,-2 -21,-4 -5,-4 -6,-8 -7,-13l19 -1zm-84 -34l9 0 20 0 0 6 -29 0 0 -6zm-2 6l-29 0 0 -6 20 0 9 0 0 6zm11 2l20 0 0 6 -20 0 0 38 -9 0 0 -38 0 -6 9 0zm-11 44l-9 0 0 -38 -20 0 0 -6 20 0 9 0 0 44zm38 -52l9 0 0 6 -9 0 0 -6zm12 0l9 0 0 0 0 6 -9 0 0 -6zm9 8l0 44 -9 0 0 -44 9 0zm-12 6l0 38 -9 0 0 -44 9 0 0 6zm50 -14l0 0c11,0 18,2 21,6 0,0 1,0 1,0 -8,0 -15,0 -22,0 0,-2 0,-4 0,-6zm-2 0c0,2 0,4 0,6 -7,0 -14,0 -21,0 3,-4 10,-6 21,-6zm-23 8c7,0 15,0 23,0 0,0 0,0 0,0l0 2c0,0 0,0 0,0 -2,0 -4,0 -5,1 -3,1 -3,4 -1,5 2,1 4,1 6,2 0,0 0,0 0,0l0 13c0,0 0,0 0,0 -5,-1 -9,-1 -13,-3 -4,-1 -7,-3 -10,-5 -2,-2 -3,-5 -2,-8l0 0c0,-3 1,-5 2,-7zm25 0l23 0c2,2 2,5 3,7l-18 1c-1,-2 -1,-3 -3,-4 -1,-1 -3,-2 -5,-2l0 -2zm0 10c5,1 10,2 15,3 3,1 7,3 9,5 2,2 3,4 4,7 1,6 -2,11 -7,14 -4,3 -11,5 -21,5l0 -10c2,0 5,0 6,-1 2,-1 3,-2 3,-4 0,-1 -1,-2 -2,-3 -2,-1 -4,-2 -7,-2l0 -14z"/>
 </g>
</svg>
